<svg xmlns="http://www.w3.org/2000/svg" width="752" height="32">
<svg id="vector-L" viewBox="0 0 10 32">
<path d="M1.567 0h6.857v31.527H1.567V0z"/>
</svg>
<svg id="vector-A" viewBox="0 0 35 32">
<path d="M32.384 31.054a32.151 32.151 0 0 1-2.995.526c-.841.105-1.839.158-2.995.158-3.363 0-5.57-1.086-6.621-3.258-1.471 1.086-2.943 1.909-4.414 2.47s-3.083.841-4.834.841c-1.576 0-2.995-.333-4.256-.998s-2.242-1.559-2.943-2.68a6.803 6.803 0 0 1-1.051-3.678c0-2.242.56-4.011 1.681-5.307 1.156-1.331 2.697-2.382 4.624-3.153 1.927-.806 4.852-1.769 8.775-2.89l1.576-.473v-.21c0-3.223-1.471-4.834-4.414-4.834-1.436 0-2.978.315-4.624.946s-3.538 1.646-5.675 3.048L2.484 5.257c2.382-1.366 4.799-2.435 7.251-3.205 2.487-.771 5.114-1.156 7.882-1.156 3.363 0 5.938.911 7.724 2.732 1.822 1.822 2.732 4.939 2.732 9.353v9.984c0 .771.158 1.331.473 1.681.315.315.823.473 1.524.473.666 0 1.331-.088 1.997-.263l.315 6.2zm-20.966-7.829c0 .701.175 1.209.525 1.524.385.315.981.473 1.787.473 1.471 0 3.205-.631 5.202-1.892v-5.57l-.788.263c-2.627.946-4.414 1.787-5.36 2.522-.911.701-1.366 1.594-1.366 2.68z"/>
</svg>
<svg id="vector-T" viewBox="0 0 21 32">
<path d="M20.532 29.94c-.841.589-1.85 1.051-3.027 1.387a12.96 12.96 0 0 1-3.363.462c-2.971 0-5.184-.644-6.642-1.934-1.457-1.317-2.186-3.195-2.186-5.633V12.788H1.741V9.719l4.498-1.808 2.018-6.432h4.372v6.137h6.726v5.17h-6.726v9.668c0 1.485.238 2.536.715 3.153s1.191.925 2.144.925c1.233 0 2.536-.364 3.909-1.093l1.135 4.498z"/>
</svg>
<svg id="vector-N" viewBox="0 0 32 32">
<path d="M19.174.893c3.888 0 6.568 1.033 8.039 3.1 1.506 2.067 2.259 5.044 2.259 8.933V31.37h-9.143V14.082c0-2.452-.298-4.151-.893-5.097-.56-.946-1.664-1.419-3.31-1.419-1.787 0-3.608.596-5.465 1.787V31.37H1.518V1.524h6.778l.946 2.47c3.433-2.067 6.743-3.1 9.931-3.1z"/>
</svg>
<svg id="vector-E" viewBox="0 0 32 32">
<path d="M10.742 18.128c.175 2.487.788 4.326 1.839 5.517s2.662 1.787 4.834 1.787c1.611 0 3.1-.28 4.466-.841 1.401-.596 2.995-1.471 4.782-2.627l2.47 5.78c-1.857 1.506-3.696 2.592-5.517 3.258S19.71 32 17.363 32c-3.468 0-6.375-.666-8.723-1.997-2.347-1.366-4.099-3.205-5.255-5.517-1.121-2.347-1.681-5.009-1.681-7.987 0-4.729 1.331-8.512 3.993-11.35S12.248.893 17.362.893c4.064 0 7.146 1.103 9.248 3.31 2.137 2.172 3.223 5.272 3.258 9.3 0 1.576-.228 3.118-.683 4.624H10.742zm10.247-5.938c.035-.21.053-.49.053-.841-.035-1.436-.42-2.522-1.156-3.258-.736-.771-1.752-1.156-3.048-1.156-3.083 0-5.009 1.752-5.78 5.255h9.931z"/>
</svg>
<svg id='vector-R' viewBox="0 0 30 32">
<path d="M12.431 20.2H8.107v11.26H0V.834h12.251c4.384 0 7.582.751 9.593 2.252 2.012 1.471 3.018 3.798 3.018 6.981 0 4.144-1.516 6.921-4.549 8.332l8.602 13.061h-9.368L12.431 20.2zm-4.324-5.63h4.144c1.591 0 2.732-.33 3.423-.991.721-.661 1.081-1.681 1.081-3.063 0-1.441-.345-2.477-1.036-3.108s-1.847-.946-3.468-.946H8.107v8.107z"/>
</svg>
</svg>